<?xml version="1.0" encoding="UTF-8"?>
<!DOCTYPE svg PUBLIC "-//W3C//DTD SVG 1.1//EN" "http://www.w3.org/Graphics/SVG/1.1/DTD/svg11.dtd">
<!-- Creator: CorelDRAW -->
<svg xmlns="http://www.w3.org/2000/svg" xml:space="preserve" width="1000px" height="800px" style="shape-rendering:geometricPrecision; text-rendering:geometricPrecision; image-rendering:optimizeQuality; fill-rule:evenodd; clip-rule:evenodd"
viewBox="0 0 1000 799.999">
 <defs>
  <style type="text/css">
   <![CDATA[
    .str4 {stroke:#1F1A17;stroke-width:0.900001}
    .str3 {stroke:#1D76AC;stroke-width:1.66654}
    .str2 {stroke:#B04629;stroke-width:1.66654}
    .str1 {stroke:#1F1A17;stroke-width:2.08347}
    .str0 {stroke:#1F1A17;stroke-width:2.91614}
    .fil2 {fill:none}
    .fil5 {fill:#1F1A17}
    .fil0 {fill:white}
    .fil1 {fill:#1F1A17;fill-rule:nonzero}
    .fil3 {fill:#4D4948;fill-rule:nonzero}
    .fil4 {fill:#131516;fill-rule:nonzero}
   ]]>
  </style>
 </defs>
 <polygon class="fil0" points="0,0 1000,0 1000,800 0,800 "/>
 <g id="Capa_x0020_1">
  <metadata id="CorelCorpID_0Corel-Layer"/>
  <g>
   <path class="fil1" d="M135.978 144.956l-21.9567 0 10.9784 -19.9583 10.9784 19.9583zm-10.9784 532.127l-2.0752 -2.08347 0 -531.774 4.1504 0 0 531.774 -2.0752 2.08347zm0 0l-2.0752 0 0 -2.08347 2.0752 2.08347zm731.773 0l-731.773 0 0 -4.16693 731.773 0 0 4.16693zm-1.73032 -13.0618l19.9583 10.9784 -19.9583 10.9784 0 -21.9567z"/>
  </g>
  <path class="fil2 str0" d="M178.394 259.903c99.9131,186.069 281.071,307.012 638.801,346.275"/>
  <path class="fil2 str0" d="M233.338 149.013c26.1732,40.7918 62.4249,82.8095 106.788,122.841 115.733,104.426 286.689,195.316 478.098,215.66"/>
  <path class="fil2 str0" d="M351.72 282.108c17.0528,106.612 48.8233,168.054 99.2139,231.714"/>
  <path class="fil2 str0" d="M559.198 415.137c38.4272,73.3394 72.0733,118.272 133.436,172.802"/>
  <polyline class="fil2 str1" points="469.864,358.616 477.246,372.147 461.834,372.293 "/>
  <polyline class="fil2 str1" points="375.689,402.958 378.005,387.72 390.361,396.935 "/>
  <polyline class="fil2 str1" points="612.381,488.626 613.831,503.971 599.61,498.03 "/>
  <polyline class="fil2 str1" points="560.776,563.999 550.35,552.648 565.272,548.79 "/>
  <path class="fil1" d="M78.9544 140.165l0 -29.8264 11.25 0c1.97953,0 3.4937,0.0968505 4.53544,0.284646 1.46457,0.243307 2.6941,0.708662 3.6874,1.39606 0.986221,0.680315 1.78465,1.64528 2.38819,2.87481 0.604725,1.23543 0.903544,2.59016 0.903544,4.0689 0,2.53465 -0.805512,4.6878 -2.41654,6.44528 -1.61811,1.74921 -4.53544,2.6315 -8.75079,2.6315l-7.65237 0 0 12.1252 -3.94488 0zm3.94488 -15.6461l7.71497 0c2.54882,0 4.36181,-0.472441 5.43071,-1.42323 1.07008,-0.951969 1.60394,-2.28543 1.60394,-4.00748 0,-1.24961 -0.311811,-2.31969 -0.943702,-3.20788 -0.63189,-0.889371 -1.45866,-1.47284 -2.49331,-1.75748 -0.667323,-0.173622 -1.88858,-0.263386 -3.68032,-0.263386l-7.63229 0 0 10.6595z"/>
  <path class="fil1" d="M865.314 729.948l-11.5559 -29.8264 4.27796 0 7.74922 21.6662c0.625985,1.73622 1.14685,3.36851 1.5626,4.88268 0.465355,-1.6252 1.00039,-3.2504 1.61102,-4.88268l8.05631 -21.6662 4.02756 0 -11.6811 29.8264 -4.04764 0z"/>
  <path class="fil1" d="M353.608 270.793l-2.19567 0 0 -14.0008c-0.529134,0.504331 -1.22126,1.00866 -2.07992,1.51299 -0.862205,0.504331 -1.63347,0.883465 -2.31614,1.13386l0 -2.12126c1.22835,-0.578741 2.30433,-1.27913 3.22441,-2.1 0.916536,-0.825591 1.57087,-1.62047 1.95473,-2.39646l1.4126 0 0 17.9717z"/>
  <path class="fil1" d="M578.932 407.841l0 2.11299 -11.8299 0c-0.0165354,-0.529134 0.0673229,-1.03701 0.253937,-1.5248 0.3,-0.809056 0.783071,-1.60039 1.44567,-2.38347 0.667323,-0.779528 1.6252,-1.68307 2.87599,-2.70827 1.94528,-1.59567 3.26221,-2.85827 3.94488,-3.79252 0.683859,-0.928347 1.0252,-1.81181 1.0252,-2.64095 0,-0.870473 -0.311811,-1.60394 -0.933072,-2.20394 -0.624804,-0.596457 -1.4374,-0.896457 -2.4378,-0.896457 -1.05827,0 -1.90394,0.316536 -2.53701,0.954331 -0.637796,0.633071 -0.959056,1.51299 -0.967324,2.63386l-2.25827 -0.229134c0.154725,-1.6878 0.73819,-2.97166 1.74567,-3.85512 1.00866,-0.883465 2.36693,-1.3252 4.06772,-1.3252 1.71614,0 3.07441,0.479528 4.07481,1.43032 1.00394,0.95315 1.50354,2.13307 1.50354,3.54095 0,0.71693 -0.145276,1.42087 -0.441733,2.11299 -0.290551,0.690945 -0.778347,1.42087 -1.45748,2.18268 -0.679134,0.766536 -1.80827,1.81654 -3.3874,3.15 -1.31693,1.10906 -2.1626,1.85906 -2.53819,2.25473 -0.37441,0.392126 -0.682678,0.787796 -0.929528,1.18701l8.78032 0z"/>
  <path class="fil1" d="M688.361 610.547l2.19567 -0.291733c0.253937,1.24606 0.683859,2.14252 1.2874,2.69173 0.608268,0.550394 1.34646,0.825591 2.21693,0.825591 1.03347,0 1.90866,-0.357874 2.62087,-1.0748 0.708662,-0.71693 1.06654,-1.60394 1.06654,-2.66221 0,-1.00866 -0.328347,-1.84252 -0.987402,-2.49685 -0.662599,-0.654331 -1.5,-0.982678 -2.51693,-0.982678 -0.415748,0 -0.933072,0.0826772 -1.54961,0.245669l0.245669 -1.92874c0.146457,0.0165354 0.262205,0.0248032 0.354331,0.0248032 0.933072,0 1.7752,-0.245669 2.5252,-0.733465 0.750001,-0.487796 1.12441,-1.24134 1.12441,-2.25827 0,-0.804331 -0.274016,-1.4752 -0.820867,-2.00079 -0.54567,-0.529134 -1.24961,-0.794883 -2.11181,-0.794883 -0.853938,0 -1.56732,0.270473 -2.13307,0.80315 -0.571654,0.537402 -0.937796,1.34646 -1.10079,2.42126l-2.19567 -0.392126c0.266929,-1.47402 0.878741,-2.61614 1.82953,-3.42402 0.954331,-0.809056 2.13662,-1.21772 3.55394,-1.21772 0.97441,0 1.87441,0.212599 2.69528,0.629528 0.820867,0.420473 1.45039,0.992127 1.88858,1.71732 0.432284,0.724016 0.65315,1.49173 0.65315,2.30788 0,0.77126 -0.207874,1.4752 -0.624804,2.11299 -0.416929,0.633071 -1.02874,1.1374 -1.84134,1.51181 1.05827,0.242126 1.87914,0.750001 2.46614,1.52126 0.583465,0.766536 0.875198,1.72914 0.875198,2.88307 0,1.5626 -0.56693,2.8878 -1.70788,3.97559 -1.1374,1.08662 -2.57953,1.62874 -4.32048,1.62874 -1.57087,0 -2.87599,-0.466536 -3.913,-1.40433 -1.03819,-0.933072 -1.62992,-2.14606 -1.7752,-3.6378z"/>
  <path class="fil1" d="M438.538 538.016l0 -4.28386 -7.76221 0 0 -2.01614 8.16733 -11.5961 1.79528 0 0 11.5961 2.41654 0 0 2.01614 -2.41654 0 0 4.28386 -2.2004 0zm0 -6.3l0 -8.06694 -5.59961 8.06694 5.59961 0z"/>
  <path class="fil2 str2" d="M487.851 411.066l-2.25827 -9.36261m26.817 -49.4563c-5.36221,4.78229 -5.21693,6.2693 -5.12008,12.2539 0.0980316,6.05315 -0.0377953,6.71693 -4.49055,10.8036 -5.34804,4.90867 -5.78032,5.96811 -5.22402,12.5728 0.523229,6.2126 0.183071,7.40316 -5.01851,12.0732 -4.82126,4.32874 -2.9941,7.20473 -4.70552,11.1154l7.96772 -6.32835"/>
  <path class="fil2 str3" d="M488.407 574.172l-2.25827 -9.36261m26.817 -49.4563c-5.36221,4.78229 -5.21693,6.2693 -5.12008,12.2539 0.0980316,6.05315 -0.0377953,6.71693 -4.49055,10.8036 -5.34804,4.90867 -5.78032,5.96811 -5.22402,12.5728 0.523229,6.2126 0.183071,7.40316 -5.01851,12.0732 -4.82126,4.32874 -2.9941,7.20473 -4.70552,11.1154l7.96772 -6.32835"/>
  <path class="fil3" d="M507.993 344.52c1.09606,0.758268 2.11299,1.30866 3.0378,1.65827l-0.69567 1.65c-1.28268,-0.461811 -2.56654,-1.19528 -3.84567,-2.19567 -1.3252,0.73819 -2.7874,1.10906 -4.39134,1.10906 -1.62165,0 -3.08859,-0.392126 -4.40906,-1.17165 -1.31693,-0.783071 -2.33268,-1.87914 -3.04607,-3.29528 -0.712205,-1.41732 -1.06654,-3.01299 -1.06654,-4.78347 0,-1.76693 0.359055,-3.37559 1.0748,-4.82481 0.71693,-1.44685 1.73386,-2.55118 3.05906,-3.30945 1.32047,-0.753544 2.79921,-1.13268 4.43268,-1.13268 1.65473,0 3.14173,0.390945 4.47166,1.17874 1.3252,0.783071 2.3374,1.88386 3.03307,3.29646 0.69567,1.4126 1.04173,3.00355 1.04173,4.77874 0,1.47047 -0.220866,2.79567 -0.670867,3.97087 -0.445276,1.1752 -1.12087,2.2004 -2.02559,3.07087zm-5.21221 -3.02953c1.36654,0.383859 2.49213,0.954331 3.37914,1.7126 1.39252,-1.27087 2.08819,-3.17835 2.08819,-5.72481 0,-1.45039 -0.245669,-2.71654 -0.73819,-3.79961 -0.491339,-1.07953 -1.21181,-1.92166 -2.15788,-2.52166 -0.950788,-0.595276 -2.0126,-0.895276 -3.19607,-0.895276 -1.76221,0 -3.22914,0.603544 -4.39134,1.81299 -1.16693,1.20827 -1.74685,3.01181 -1.74685,5.41654 0,2.32441 0.575197,4.1126 1.72559,5.35867 1.15394,1.24134 2.62559,1.86614 4.4126,1.86614 0.850394,0 1.64528,-0.158268 2.39528,-0.474804 -0.740552,-0.483071 -1.5248,-0.825591 -2.34567,-1.0252l0.575197 -1.72559z"/>
  <path class="fil3" d="M516.605 351.433l-1.09961 0 0 -7.0004c-0.262205,0.250394 -0.612993,0.504331 -1.04173,0.754725 -0.429922,0.253937 -0.812599,0.441733 -1.15394,0.570473l0 -1.06299c0.611812,-0.291733 1.14921,-0.641339 1.60748,-1.05 0.462992,-0.412205 0.787796,-0.807875 0.979135,-1.19528l0.708662 0 0 8.98347z"/>
  <path class="fil3" d="M499.409 593.233c1.09606,0.758268 2.11299,1.30866 3.0378,1.65827l-0.69567 1.65c-1.28268,-0.461811 -2.56654,-1.19528 -3.84567,-2.19567 -1.3252,0.73819 -2.7874,1.10906 -4.39134,1.10906 -1.62165,0 -3.08859,-0.392126 -4.40906,-1.17165 -1.31693,-0.783071 -2.33268,-1.87914 -3.04607,-3.29528 -0.712205,-1.41732 -1.06654,-3.01299 -1.06654,-4.78347 0,-1.76693 0.359055,-3.37559 1.0748,-4.82481 0.71693,-1.44685 1.73386,-2.55118 3.05906,-3.30945 1.32047,-0.753544 2.79921,-1.13268 4.43268,-1.13268 1.65473,0 3.14173,0.390945 4.47166,1.17874 1.3252,0.783071 2.3374,1.88386 3.03307,3.29646 0.69567,1.4126 1.04173,3.00355 1.04173,4.77874 0,1.47047 -0.220866,2.79567 -0.670867,3.97087 -0.445276,1.1752 -1.12087,2.2004 -2.02559,3.07087zm-5.21221 -3.02953c1.36654,0.383859 2.49213,0.954331 3.37914,1.7126 1.39252,-1.27087 2.08819,-3.17835 2.08819,-5.72481 0,-1.45039 -0.245669,-2.71654 -0.73819,-3.79961 -0.491339,-1.07953 -1.21181,-1.92166 -2.15788,-2.52166 -0.950788,-0.595276 -2.0126,-0.895276 -3.19607,-0.895276 -1.76221,0 -3.22914,0.603544 -4.39134,1.81299 -1.16693,1.20827 -1.74685,3.01181 -1.74685,5.41654 0,2.32441 0.575197,4.1126 1.72559,5.35867 1.15394,1.24134 2.62559,1.86614 4.4126,1.86614 0.850394,0 1.64528,-0.158268 2.39528,-0.474804 -0.740552,-0.483071 -1.5248,-0.825591 -2.34567,-1.0252l0.575197 -1.72559z"/>
  <path class="fil3" d="M509.656 599.091l0 1.05473 -5.9126 0c-0.00826772,-0.262205 0.0330709,-0.520867 0.12874,-0.762993 0.15,-0.403937 0.392126,-0.799607 0.721654,-1.19173 0.333071,-0.390945 0.812599,-0.840946 1.4374,-1.35354 0.97441,-0.796064 1.62874,-1.42913 1.97008,-1.89567 0.34252,-0.467717 0.512599,-0.904725 0.512599,-1.32165 0,-0.433465 -0.153543,-0.804331 -0.466536,-1.09961 -0.308268,-0.3 -0.71693,-0.45 -1.21654,-0.45 -0.529134,0 -0.949607,0.158268 -1.27087,0.474804 -0.316536,0.316536 -0.474804,0.758268 -0.479528,1.32047l-1.12913 -0.115748c0.0755906,-0.842127 0.367323,-1.48347 0.871654,-1.9252 0.504331,-0.441733 1.18347,-0.662599 2.03268,-0.662599 0.858662,0 1.5378,0.237402 2.0374,0.712205 0.500788,0.474804 0.750001,1.06654 0.750001,1.77047 0,0.359055 -0.0708662,0.708662 -0.216142,1.05473 -0.15,0.346063 -0.392126,0.712205 -0.728741,1.09606 -0.34252,0.379134 -0.904725,0.903544 -1.69606,1.57087 -0.659056,0.553937 -1.08307,0.929528 -1.27087,1.12913 -0.187795,0.196063 -0.341339,0.39567 -0.462992,0.595276l4.3878 0z"/>
  <polygon class="fil1" points="835.036,497.507 835.036,481.724 829.14,481.724 829.14,479.611 843.324,479.611 843.324,481.724 837.403,481.724 837.403,497.507 "/>
  <path class="fil1" d="M848.483 502.503l-1.09961 0 0 -7.0004c-0.262205,0.250394 -0.612993,0.504331 -1.04173,0.754725 -0.429922,0.253937 -0.812599,0.441733 -1.15394,0.570473l0 -1.06299c0.611812,-0.291733 1.14921,-0.641339 1.60748,-1.05 0.462992,-0.412205 0.787796,-0.807875 0.979135,-1.19528l0.708662 0 0 8.98347z"/>
  <polygon class="fil1" points="835.357,618.537 835.357,602.754 829.46,602.754 829.46,600.641 843.644,600.641 843.644,602.754 837.723,602.754 837.723,618.537 "/>
  <path class="fil1" d="M850.437 622.478l0 1.05473 -5.9126 0c-0.00826772,-0.262205 0.0330709,-0.520867 0.12874,-0.762993 0.15,-0.403937 0.392126,-0.799607 0.721654,-1.19173 0.333071,-0.390945 0.812599,-0.840946 1.4374,-1.35354 0.97441,-0.796064 1.62874,-1.42913 1.97008,-1.89567 0.34252,-0.467717 0.512599,-0.904725 0.512599,-1.32165 0,-0.433465 -0.153543,-0.804331 -0.466536,-1.09961 -0.308268,-0.3 -0.71693,-0.45 -1.21654,-0.45 -0.529134,0 -0.949607,0.158268 -1.27087,0.474804 -0.316536,0.316536 -0.474804,0.758268 -0.479528,1.32047l-1.12913 -0.115748c0.0755906,-0.842127 0.367323,-1.48347 0.871654,-1.9252 0.504331,-0.441733 1.18347,-0.662599 2.03268,-0.662599 0.858662,0 1.5378,0.237402 2.0374,0.712205 0.500788,0.474804 0.750001,1.06654 0.750001,1.77047 0,0.359055 -0.0708662,0.708662 -0.216142,1.05473 -0.15,0.346063 -0.392126,0.712205 -0.728741,1.09606 -0.34252,0.379134 -0.904725,0.903544 -1.69606,1.57087 -0.659056,0.553937 -1.08307,0.929528 -1.27087,1.12913 -0.187795,0.196063 -0.341339,0.39567 -0.462992,0.595276l4.3878 0z"/>
  <polygon class="fil1" points="765.738,391.429 765.738,373.016 758.859,373.016 758.859,370.551 775.406,370.551 775.406,373.016 768.499,373.016 768.499,391.429 "/>
  <path class="fil1" d="M781.424 397.258l-1.28268 0 0 -8.16733c-0.307087,0.291733 -0.714567,0.588189 -1.21536,0.879922 -0.500788,0.296457 -0.948426,0.516142 -1.34646,0.666142l0 -1.23898c0.714567,-0.340158 1.34173,-0.748819 1.87559,-1.2248 0.539764,-0.48189 0.918898,-0.943702 1.14331,-1.39606l0.825591 0 0 10.4811z"/>
  <polygon class="fil4" points="807.625,382.301 793.796,388.211 793.796,385.66 804.748,381.12 793.796,376.618 793.796,374.071 807.625,379.909 "/>
  <polygon class="fil4" points="824.377,391.429 824.377,373.016 817.498,373.016 817.498,370.551 834.046,370.551 834.046,373.016 827.138,373.016 827.138,391.429 "/>
  <path class="fil4" d="M841.97 396.027l0 1.23071 -6.89764 0c-0.0106299,-0.307087 0.0377953,-0.608268 0.15,-0.889371 0.174803,-0.472441 0.457087,-0.934253 0.840946,-1.39134 0.388583,-0.455906 0.948426,-0.981497 1.67717,-1.57914 1.1374,-0.928347 1.9004,-1.66772 2.29961,-2.21221 0.398032,-0.544489 0.597638,-1.05473 0.597638,-1.54016 0,-0.505512 -0.179528,-0.938977 -0.544489,-1.28386 -0.360237,-0.349607 -0.836221,-0.52441 -1.41969,-0.52441 -0.616536,0 -1.10787,0.184252 -1.48228,0.553937 -0.369685,0.368504 -0.553937,0.884646 -0.558662,1.54016l-1.31811 -0.135827c0.0874016,-0.981497 0.427559,-1.73032 1.01575,-2.24528 0.588189,-0.516142 1.38071,-0.773623 2.37284,-0.773623 1.00158,0 1.7941,0.277559 2.37638,0.831497 0.583465,0.553937 0.875198,1.24488 0.875198,2.06575 0,0.418111 -0.0826772,0.826772 -0.252756,1.23071 -0.174803,0.402756 -0.457087,0.830316 -0.850394,1.27795 -0.398032,0.441733 -1.05473,1.05473 -1.97835,1.83307 -0.767717,0.646064 -1.26378,1.08307 -1.48228,1.31693 -0.219685,0.227953 -0.399213,0.461811 -0.539764,0.694489l5.1189 0z"/>
  <circle class="fil5 str4" cx="351.72" cy="282.108" r="3.75591"/>
  <circle class="fil5 str4" cx="450.933" cy="513.821" r="3.75591"/>
  <circle class="fil5 str4" cx="559.198" cy="415.137" r="3.75591"/>
  <circle class="fil5 str4" cx="692.634" cy="587.939" r="3.75591"/>
 </g>
</svg>
