<?xml version="1.0" encoding="UTF-8" standalone="no"?>
<svg
   xmlns:dc="http://purl.org/dc/elements/1.1/"
   xmlns:cc="http://creativecommons.org/ns#"
   xmlns:rdf="http://www.w3.org/1999/02/22-rdf-syntax-ns#"
   xmlns:svg="http://www.w3.org/2000/svg"
   xmlns="http://www.w3.org/2000/svg"
   xmlns:sodipodi="http://sodipodi.sourceforge.net/DTD/sodipodi-0.dtd"
   xmlns:inkscape="http://www.inkscape.org/namespaces/inkscape"
   version="1.1"
   width="760"
   height="750"
   id="svg2"
   inkscape:version="0.47 r22583"
   sodipodi:docname="Euler's_formula.svg">
  <metadata
     id="metadata48">
    <rdf:RDF>
      <cc:Work
         rdf:about="">
        <dc:format>image/svg+xml</dc:format>
        <dc:type
           rdf:resource="http://purl.org/dc/dcmitype/StillImage" />
      </cc:Work>
    </rdf:RDF>
  </metadata>
  <defs
     id="defs46" />
  <sodipodi:namedview
     pagecolor="#ffffff"
     bordercolor="#666666"
     borderopacity="1"
     objecttolerance="10"
     gridtolerance="10"
     guidetolerance="10"
     inkscape:pageopacity="0"
     inkscape:pageshadow="2"
     inkscape:window-width="1280"
     inkscape:window-height="1003"
     id="namedview44"
     showgrid="false"
     inkscape:zoom="0.68533333"
     inkscape:cx="288.50293"
     inkscape:cy="473.00208"
     inkscape:window-x="-4"
     inkscape:window-y="-4"
     inkscape:window-maximized="1"
     inkscape:current-layer="svg2" />
  <path
     d="M 572.60958,442.59196 C 572.60958,592.99626 450.68281,714.92303 300.27851,714.92303 149.87421,714.92303 27.947434,592.99626 27.947434,442.59196 27.947434,292.18766 149.87421,170.26089 300.27851,170.26089 450.68281,170.26089 572.60958,292.18766 572.60958,442.59196 z"
     style="fill:none;stroke:#000000;stroke-width:4"
     id="path4" />
  <path
     d="M 300.56641,56.155211 300.56641,737.60853"
     style="fill:none;stroke:#000000;stroke-width:4"
     id="path6" />
  <path
     d="M 5.9019627,442.87981 656.05629,442.87981"
     style="fill:none;stroke:#000000;stroke-width:4"
     id="path8" />
  <path
     d="M 300.5664,442.87981 394.42617,216.57989"
     style="fill:none;stroke:#000000;stroke-width:4"
     id="path10" />
  <path
     d="M 300.67221,12.919799 316.74673,72.910744 285.29254,72.910744 300.67221,12.919799 z"
     style="stroke:#000000;stroke-width:2"
     id="path12" />
  <path
     d="M 711.30139,440.96546 651.31045,457.03998 651.31045,425.58579 711.30139,440.96546 z"
     style="stroke:#000000;stroke-width:2"
     id="path14" />
  <path
     d="M 263.5416,474.04764 C 263.5416,469.7247 264.19377,466.00734 265.49811,462.89552 266.80245,459.76514 268.53537,457.43596 270.69684,455.90799 272.37384,454.69686 274.10675,454.09127 275.89557,454.09122 278.80237,454.09127 281.41105,455.57262 283.72161,458.5353 286.60978,462.20612 288.05387,467.18124 288.0539,473.46068 288.05387,477.85819 287.42033,481.5942 286.15329,484.66869 284.88619,487.74322 283.26508,489.97924 281.28995,491.37673 279.33342,492.75562 277.44213,493.44505 275.61607,493.44505 272.00118,493.44505 268.99189,491.31151 266.58817,487.04447 264.55712,483.44821 263.5416,479.11594 263.5416,474.04764 M 269.01983,474.7464 C 269.01983,479.96377 269.66268,484.22151 270.9484,487.51961 272.01049,490.296 273.59434,491.6842 275.69993,491.6842 276.70611,491.6842 277.74959,491.23699 278.83035,490.34259 279.91107,489.42955 280.73094,487.91093 281.28995,485.78671 282.14707,482.58177 282.57564,478.06317 282.57567,472.23088 282.57564,467.90794 282.12844,464.30238 281.23406,461.41417 280.56323,459.27135 279.69677,457.75272 278.6347,456.85829 277.8707,456.24343 276.94835,455.93597 275.86763,455.93594 274.60054,455.93597 273.47321,456.5043 272.48566,457.6409 271.14403,459.1875 270.231,461.61916 269.74655,464.93588 269.26207,468.25267 269.01983,471.52283 269.01983,474.7464"
     id="path16" />
  <path
     d="M 333.27504,478.60835 C 332.59755,481.92248 331.27007,484.47674 329.2926,486.27112 327.31509,488.0472 325.12703,488.93524 322.72842,488.93524 319.87204,488.93524 317.38187,487.73594 315.2579,485.3373 313.13393,482.93869 312.07195,479.69781 312.07195,475.61465 312.07195,471.65968 313.24379,468.44627 315.58749,465.97439 317.94948,463.50255 320.77839,462.26662 324.07421,462.2666 326.54606,462.26662 328.57848,462.92579 330.17149,464.24408 331.76443,465.54412 332.56092,466.89906 332.56095,468.30892 332.56092,469.00472 332.33205,469.57234 331.87432,470.01176 331.43485,470.43291 330.8123,470.64348 330.00669,470.64347 328.92637,470.64348 328.11158,470.29559 327.56229,469.59979 327.251,469.2153 327.04044,468.48288 326.9306,467.40258 326.83903,466.3223 326.47282,465.49835 325.83198,464.93071 325.19112,464.38143 324.30308,464.10678 323.16787,464.10675 321.33685,464.10678 319.86289,464.78426 318.74598,466.13917 317.26286,467.93358 316.52129,470.30474 316.52131,473.25265 316.52129,476.25551 317.25369,478.91048 318.71852,481.21754 320.20163,483.50631 322.19742,484.65069 324.70592,484.65069 326.50029,484.65069 328.11158,484.0373 329.53977,482.81052 330.54681,481.96827 331.52641,480.43936 332.47855,478.22384 L 333.27504,478.60835 M 349.14989,462.2666 C 352.95837,462.26662 356.01616,463.71312 358.32324,466.60609 360.28241,469.07796 361.26199,471.91603 361.26201,475.12027 361.26199,477.37243 360.72185,479.65203 359.64157,481.9591 358.56125,484.26617 357.06898,486.00563 355.16475,487.17747 353.2788,488.34933 351.17314,488.93524 348.84778,488.93524 345.05758,488.93524 342.04557,487.42466 339.81174,484.4035 337.92579,481.85839 336.98283,479.00203 336.98283,475.83436 336.98283,473.52731 337.55044,471.23855 338.68567,468.96809 339.8392,466.67935 341.34978,464.99482 343.21742,463.9145 345.08504,462.81591 347.06252,462.26662 349.14989,462.2666 M 348.29847,464.05183 C 347.32802,464.05185 346.34843,464.34482 345.3597,464.93071 344.38925,465.49835 343.60192,466.5054 342.9977,467.95188 342.39346,469.3984 342.09134,471.25687 342.09135,473.52729 342.09134,477.18933 342.8146,480.34781 344.26109,483.00277 345.72589,485.65774 347.64845,486.98522 350.02877,486.98522 351.80484,486.98522 353.26965,486.25282 354.4232,484.788 355.57672,483.32321 356.15348,480.80556 356.15349,477.23509 356.15348,472.76745 355.1922,469.25191 353.26966,466.68848 351.96963,464.93073 350.31256,464.05185 348.29847,464.05183 M 381.22917,462.2666 381.22917,470.83572 380.32283,470.83572 C 379.62703,468.14416 378.72983,466.31315 377.63123,465.34268 376.55093,464.37228 375.16853,463.88707 373.484,463.88704 372.20229,463.88707 371.16778,464.22579 370.38044,464.90324 369.59311,465.58075 369.19943,466.33145 369.19945,467.15539 369.19943,468.18077 369.4924,469.05966 370.07833,469.79204 370.64594,470.54278 371.79947,471.33927 373.53894,472.18151 L 377.54884,474.13153 C 381.26577,475.94425 383.12424,478.33372 383.12427,481.29994 383.12424,483.5887 382.25453,485.43802 380.51508,486.84788 378.79392,488.23945 376.86221,488.93524 374.71993,488.93524 373.18187,488.93524 371.42411,488.66059 369.44664,488.11129 368.84239,487.92819 368.34802,487.83664 367.96352,487.83664 367.54238,487.83664 367.2128,488.07466 366.97476,488.55073 L 366.06842,488.55073 366.06842,479.56963 366.97476,479.56963 C 367.48745,482.13304 368.46703,484.06476 369.91354,485.36478 371.36003,486.6648 372.98047,487.3148 374.77487,487.3148 376.03824,487.3148 377.06361,486.9486 377.85096,486.21619 378.65659,485.46548 379.05942,484.56829 379.05943,483.52461 379.05942,482.26122 378.61082,481.19924 377.71363,480.33866 376.83473,479.47808 375.06782,478.38864 372.41286,477.07031 369.7579,475.75198 368.01844,474.56183 367.19449,473.49983 366.37053,472.45617 365.95856,471.13784 365.95856,469.54485 365.95856,467.47583 366.6635,465.74553 368.07337,464.35394 369.50156,462.9624 371.34172,462.26662 373.59387,462.2666 374.5826,462.26662 375.78192,462.47719 377.19179,462.8983 378.1256,463.17296 378.74814,463.31029 379.05943,463.31026 379.35238,463.31029 379.58124,463.2462 379.74605,463.11801 379.91083,462.98986 380.10308,462.70606 380.32283,462.2666 L 381.22917,462.2666 M 408.99642,500.19595 406.19498,500.19595 409.51826,488.82538 C 406.8633,488.80708 404.80341,488.01059 403.33861,486.43592 401.8921,484.84294 401.16886,482.66404 401.16886,479.89922 401.16886,475.68791 402.47803,471.89772 405.09638,468.52865 407.71471,465.15961 410.98306,463.42015 414.90143,463.31026 L 414.59932,464.29902 C 412.14575,464.70186 410.00347,466.70681 408.17247,470.31388 406.35977,473.92098 405.45342,477.45483 405.45342,480.91542 405.45342,485.09013 406.93653,487.24156 409.90278,487.36972 L 413.61058,475.09281 C 414.54437,471.92518 415.38664,469.57234 416.13736,468.03427 416.88806,466.47794 417.81272,465.3061 418.91135,464.51873 420.00993,463.71312 421.18177,463.31029 422.42688,463.31026 424.18462,463.31029 425.54872,464.061 426.51918,465.56241 427.48959,467.04555 427.97481,469.01388 427.97484,471.46742 427.97481,475.89847 426.60155,479.8626 423.85507,483.35982 421.12683,486.83873 417.24511,488.66974 412.20985,488.85284 L 408.99642,500.19595 M 412.70422,487.34226 C 416.36623,487.10423 419.19513,485.20914 421.19095,481.65699 423.18673,478.08653 424.18462,474.44282 424.18465,470.72586 424.18462,467.55823 423.37898,465.97441 421.76771,465.97439 420.79726,465.97441 419.92753,466.56034 419.15853,467.73216 418.38949,468.90402 417.39158,471.56813 416.16483,475.72451 L 412.70422,487.34226"
     id="path18" />
  <path
     d="M 336.4878,435.37357 333.70334,435.37357 337.00647,424.07194 C 334.36759,424.05373 332.3202,423.26207 330.86429,421.69696 329.42655,420.11365 328.70769,417.94795 328.70769,415.19988 328.70769,411.0141 330.00893,407.24691 332.6114,403.89825 335.21386,400.54966 338.46239,398.82074 342.357,398.71152 L 342.05671,399.69427 C 339.61803,400.09467 337.48874,402.08747 335.66885,405.67267 333.86712,409.25789 332.96627,412.77031 332.96628,416.20994 332.96627,420.35932 334.44039,422.49772 337.38865,422.62511 L 341.07396,410.42263 C 342.00211,407.2742 342.83926,404.93562 343.58544,403.40689 344.33158,401.85997 345.25064,400.69524 346.34259,399.91266 347.43453,399.11192 348.59927,398.71155 349.83682,398.71152 351.58392,398.71155 352.93974,399.4577 353.90432,400.95001 354.86884,402.42415 355.35111,404.38055 355.35114,406.81921 355.35111,411.2234 353.98619,415.16349 351.25636,418.63952 348.54466,422.09734 344.68646,423.91725 339.68173,424.09924 L 336.4878,435.37357 M 340.17311,422.59781 C 343.8129,422.36122 346.62466,420.47762 348.60838,416.94699 350.59206,413.39818 351.58392,409.77657 351.58393,406.08214 351.58392,402.93373 350.78316,401.35951 349.18166,401.35948 348.21708,401.35951 347.35263,401.94187 346.58828,403.10659 345.8239,404.27136 344.83206,406.91932 343.61273,411.0505 L 340.17311,422.59781"
     id="path20" />
  <path
     d="m 353.1875,67.4375 c -0.58614,2.7e-5 -1.06404,0.189067 -1.46875,0.59375 -0.40471,0.404736 -0.625,0.913894 -0.625,1.5 0,0.572201 0.22029,1.050109 0.625,1.46875 0.41867,0.404734 0.89656,0.625024 1.46875,0.625 0.57216,2.4e-5 1.06402,-0.220266 1.46875,-0.625 0.41866,-0.418641 0.62499,-0.896549 0.625,-1.46875 -10e-6,-0.586106 -0.18906,-1.095264 -0.59375,-1.5 -0.40473,-0.404683 -0.91387,-0.593723 -1.5,-0.59375 z m 0.28125,8.3125 -7.21875,1.15625 0,0.8125 c 0.96294,-0.153494 1.59923,-0.218732 1.90625,-0.21875 0.37681,1.8e-5 0.66566,0.08589 0.875,0.28125 0.2233,0.195395 0.34375,0.474245 0.34375,0.78125 0,0.390771 -0.24093,1.339906 -0.6875,2.875 l -2.71875,9.375 c -0.34888,1.20018 -0.53126,2.04614 -0.53125,2.5625 -10e-6,0.51635 0.19966,0.96361 0.5625,1.3125 0.36285,0.33493 0.83407,0.5 1.40625,0.5 0.86523,0 1.76977,-0.3541 2.71875,-1.09375 1.2839,-0.99084 2.39477,-2.23612 3.34375,-3.6875 L 352.75,89.9375 c -0.80942,1.15832 -1.61079,2.05951 -2.40625,2.6875 -0.29307,0.22329 -0.57192,0.3125 -0.78125,0.3125 -0.18143,0 -0.32919,-0.04794 -0.46875,-0.1875 -0.12559,-0.13955 -0.18751,-0.33921 -0.1875,-0.5625 -10e-6,-0.19538 0.12713,-0.79041 0.40625,-1.78125 L 353.46875,75.75 z m 14.0625,0 c -2.9865,0.08375 -5.50436,1.400951 -7.5,3.96875 -1.99564,2.567829 -2.96875,5.446489 -2.96875,8.65625 0,2.10729 0.55376,3.78587 1.65625,5 1.11643,1.20018 2.66395,1.79854 4.6875,1.8125 l -2.53125,8.65625 2.15625,0 2.4375,-8.625 c 3.83776,-0.13955 6.79561,-1.53594 8.875,-4.1875 2.0933,-2.6655 3.12497,-5.685253 3.125,-9.0625 -3e-5,-1.870025 -0.35414,-3.369587 -1.09375,-4.5 -0.73967,-1.144335 -1.7853,-1.71873 -3.125,-1.71875 -0.949,2e-5 -1.85019,0.292226 -2.6875,0.90625 -0.83736,0.600106 -1.52159,1.501296 -2.09375,2.6875 -0.57219,1.172278 -1.22578,2.960708 -1.9375,5.375 l -2.8125,9.375 c -2.26081,-0.09768 -3.40625,-1.75564 -3.40625,-4.9375 0,-2.63758 0.68091,-5.313252 2.0625,-8.0625 1.39555,-2.749222 3.03621,-4.28671 4.90625,-4.59375 l 0.25,-0.75 z m 5.21875,2.03125 c 1.22806,1.6e-5 1.84373,1.210709 1.84375,3.625 -2e-5,2.832981 -0.76011,5.59118 -2.28125,8.3125 -1.52116,2.70737 -3.67765,4.16233 -6.46875,4.34375 l 2.625,-8.84375 c 0.93499,-3.167893 1.69511,-5.200582 2.28125,-6.09375 0.58613,-0.893137 1.26034,-1.343734 2,-1.34375 z M 621.4375,85.25 c -0.76722,3.6e-5 -1.40777,0.251555 -1.9375,0.78125 -0.52973,0.529767 -0.78125,1.20158 -0.78125,1.96875 0,0.74896 0.25152,1.38953 0.78125,1.9375 0.548,0.52976 1.18855,0.78128 1.9375,0.78125 0.74891,3e-5 1.40775,-0.25149 1.9375,-0.78125 0.54799,-0.54797 0.81248,-1.18854 0.8125,-1.9375 -2e-5,-0.76717 -0.25153,-1.438983 -0.78125,-1.96875 -0.52975,-0.529695 -1.20158,-0.781214 -1.96875,-0.78125 z m -43.59375,2.28125 0,13.625 -13.625,0 0,2.21875 13.625,0 0,13.6875 2.1875,0 0,-13.6875 13.71875,0 0,-2.21875 -13.71875,0 0,-13.625 -2.1875,0 z m 96.125,7.53125 c -3.32622,3e-5 -6.07902,1.221747 -8.28125,3.625 -2.20224,2.4033 -3.3125,5.73644 -3.3125,10.03125 0,3.96587 1.07133,7.12031 3.21875,9.46875 2.14741,2.34845 4.73447,3.53125 7.75,3.53125 2.77792,0 5.09162,-1.03772 6.9375,-3.09375 1.84584,-2.05603 2.95993,-4.33995 3.34375,-6.84375 L 682.78125,111.25 c -0.82244,2.19311 -1.84718,3.7516 -3.0625,4.65625 -1.21536,0.90466 -2.63644,1.34375 -4.28125,1.34375 -2.46725,0 -4.60992,-1.0675 -6.4375,-3.1875 -1.82759,-2.11999 -2.73703,-5.02171 -2.71875,-8.75 l 17.34375,0 c -2e-5,-3.10688 -0.90946,-5.613727 -2.71875,-7.46875 -1.80933,-1.85498 -4.12303,-2.78122 -6.9375,-2.78125 z M 443.25,95.09375 c -3.28799,3e-5 -6.0811,1.22153 -8.4375,3.6875 -2.33811,2.46601 -3.53126,5.67943 -3.53125,9.625 -10e-6,4.07346 1.06856,7.29458 3.1875,9.6875 2.11891,2.39292 4.61914,3.59375 7.46875,3.59375 2.39291,0 4.55844,-0.88439 6.53125,-2.65625 1.97277,-1.79012 3.29286,-4.31874 3.96875,-7.625 L 451.65625,111 c -0.94988,2.21026 -1.93285,3.75349 -2.9375,4.59375 -1.42482,1.22386 -3.02239,1.8125 -4.8125,1.8125 -2.50253,0 -4.48917,-1.12292 -5.96875,-3.40625 -1.46133,-2.30159 -2.21875,-4.94177 -2.21875,-7.9375 0,-2.9409 0.73915,-5.33486 2.21875,-7.125 1.11425,-1.35171 2.61083,-1.99998 4.4375,-2 1.13251,2e-5 2.01689,0.26452 2.65625,0.8125 0.63931,0.56629 1.00245,1.391036 1.09375,2.46875 0.10958,1.07776 0.31446,1.80392 0.625,2.1875 0.54798,0.69414 1.35976,1.03127 2.4375,1.03125 0.80371,2e-5 1.40533,-0.20485 1.84375,-0.625 0.45665,-0.43838 0.68748,-0.99336 0.6875,-1.6875 -2e-5,-1.406504 -0.78582,-2.76555 -2.375,-4.0625 -1.58921,-1.31517 -3.62777,-1.96872 -6.09375,-1.96875 z m 25.03125,0 c -2.0824,3e-5 -4.04306,0.52903 -5.90625,1.625 -1.8632,1.07775 -3.38047,2.779186 -4.53125,5.0625 -1.13253,2.26508 -1.6875,4.54217 -1.6875,6.84375 0,3.16013 0.93105,6.02344 2.8125,8.5625 2.22852,3.01398 5.2188,4.5 9,4.5 2.31984,0 4.43101,-0.58092 6.3125,-1.75 1.8997,-1.16906 3.39101,-2.91714 4.46875,-5.21875 1.07771,-2.30157 1.62497,-4.5657 1.625,-6.8125 -3e-5,-3.19665 -0.98301,-6.034 -2.9375,-8.5 -2.30162,-2.8861 -5.35682,-4.31247 -9.15625,-4.3125 z m 24.375,0 c -2.2468,3e-5 -4.07521,0.67427 -5.5,2.0625 -1.40653,1.38829 -2.09375,3.1234 -2.09375,5.1875 0,1.58922 0.39675,2.89631 1.21875,3.9375 0.82199,1.05948 2.57008,2.24732 5.21875,3.5625 2.64864,1.31519 4.40443,2.42273 5.28125,3.28125 0.89504,0.85853 1.34373,1.89586 1.34375,3.15625 -2e-5,1.0412 -0.41504,1.93856 -1.21875,2.6875 -0.78548,0.73066 -1.80211,1.09375 -3.0625,1.09375 -1.79014,0 -3.4007,-0.64057 -4.84375,-1.9375 -1.44307,-1.29693 -2.42604,-3.22391 -2.9375,-5.78125 l -0.90625,0 0,8.96875 0.90625,0 c 0.23746,-0.47492 0.57986,-0.71875 1,-0.71875 0.38359,0 0.86595,0.0986 1.46875,0.28125 1.97279,0.54799 3.71559,0.8125 5.25,0.8125 2.13717,0 4.06417,-0.67425 5.78125,-2.0625 1.7353,-1.40652 2.62499,-3.27917 2.625,-5.5625 -10e-6,-2.95918 -1.8544,-5.31659 -5.5625,-7.125 l -4,-1.96875 c -1.73533,-0.84024 -2.90249,-1.62604 -3.46875,-2.375 -0.58454,-0.73064 -0.875,-1.60205 -0.875,-2.625 0,-0.82198 0.40202,-1.57412 1.1875,-2.25 0.78545,-0.67584 1.81508,-0.99997 3.09375,-1 1.68051,3e-5 3.04726,0.46938 4.125,1.4375 1.09597,0.96814 1.99335,2.78358 2.6875,5.46875 l 0.90625,0 0,-8.53125 -0.90625,0 c -0.21921,0.43843 -0.39811,0.71592 -0.5625,0.84375 -0.16442,0.12789 -0.39526,0.18752 -0.6875,0.1875 -0.31056,2e-5 -0.94343,-0.13222 -1.875,-0.40625 -1.40655,-0.42011 -2.60737,-0.62497 -3.59375,-0.625 z m 156.1875,0 c -2.24794,3e-5 -4.08363,0.70481 -5.5,2.09375 -1.41638,1.388993 -2.125,3.12235 -2.125,5.1875 0,1.59002 0.39633,2.89579 1.21875,3.9375 0.82241,1.06001 2.56874,2.24665 5.21875,3.5625 2.64999,1.31587 4.42611,2.39104 5.3125,3.25 0.88636,0.85897 1.31248,1.92647 1.3125,3.1875 -2e-5,1.04173 -0.39252,1.94733 -1.1875,2.6875 -0.79501,0.74017 -1.83273,1.09375 -3.09375,1.09375 -1.79104,0 -3.39997,-0.63991 -4.84375,-1.9375 -1.4438,-1.29758 -2.42578,-3.22262 -2.9375,-5.78125 l -0.90625,0 0,8.96875 0.90625,0 c 0.23758,-0.47517 0.57965,-0.71875 1,-0.71875 0.38379,0 0.86564,0.0985 1.46875,0.28125 1.97378,0.54828 3.74607,0.8125 5.28125,0.8125 2.13826,0 4.05417,-0.69565 5.78125,-2.09375 1.72705,-1.3981 2.59373,-3.24676 2.59375,-5.53125 -2e-5,-2.96068 -1.85252,-5.34693 -5.5625,-7.15625 l -4,-1.9375 c -1.73622,-0.84067 -2.90221,-1.62567 -3.46875,-2.375 -0.58483,-0.73102 -0.87501,-1.63278 -0.875,-2.65625 -10e-6,-0.82239 0.40163,-1.573767 1.1875,-2.25 0.78585,-0.67618 1.81443,-0.99998 3.09375,-1 1.68137,2e-5 3.06882,0.468897 4.15625,1.4375 1.0874,0.96864 1.993,2.81347 2.6875,5.5 l 0.90625,0 0,-8.5625 -0.90625,0 c -0.21933,0.43865 -0.42928,0.71584 -0.59375,0.84375 -0.1645,0.12796 -0.3951,0.21877 -0.6875,0.21875 -0.31071,2e-5 -0.9117,-0.16334 -1.84375,-0.4375 -1.40725,-0.42032 -2.60686,-0.62497 -3.59375,-0.625 z m 44.25,0 -7.5625,3.0625 0.40625,1 c 0.71276,-0.27412 1.30077,-0.40623 1.8125,-0.40625 0.47517,2e-5 0.87297,0.10619 1.15625,0.34375 0.28327,0.23761 0.48793,0.68584 0.625,1.34375 0.13706,0.65795 0.21875,2.51575 0.21875,5.53125 l 0,9.3125 c 0,1.82759 -0.23975,3.06996 -0.6875,3.71875 -0.44776,0.64879 -1.31444,0.96875 -2.59375,0.96875 l -0.53125,0 0,0.96875 12.40625,0 0,-0.96875 c -1.3707,0 -2.271,-0.12827 -2.71875,-0.375 -0.44777,-0.24672 -0.80665,-0.62625 -1.0625,-1.15625 -0.20104,-0.40207 -0.31251,-1.45659 -0.3125,-3.15625 l 0,-13.25 c 2.15654,-2.37584 4.32516,-3.56248 6.5,-3.5625 1.40722,2e-5 2.40602,0.52994 3,1.5625 0.59395,1.03261 0.90623,2.68429 0.90625,4.96875 l 0,10.28125 c -2e-5,1.4438 -0.0519,2.28837 -0.125,2.5625 -0.18278,0.69449 -0.50273,1.23737 -0.96875,1.59375 -0.46605,0.35638 -1.26786,0.53125 -2.4375,0.53125 l -0.53125,0 0,0.96875 12.40625,0 0,-0.96875 c -1.20623,0 -2.02102,-0.11914 -2.46875,-0.375 -0.44778,-0.25586 -0.76774,-0.63685 -0.96875,-1.09375 -0.25589,-0.56655 -0.37502,-1.62875 -0.375,-3.21875 l 0,-10.71875 c -2e-5,-2.26619 -0.22295,-3.96593 -0.625,-5.0625 -0.58485,-1.571703 -1.35688,-2.68963 -2.34375,-3.375 -0.98692,-0.68532 -2.16058,-1.03122 -3.53125,-1.03125 -2.66829,3e-5 -5.4951,1.767007 -8.4375,5.3125 l 0,-5.3125 -1.15625,0 z M 334,96.125 c -2.6852,2e-5 -5.30471,0.78583 -7.84375,2.375 -2.53906,1.57095 -4.66323,3.80669 -6.34375,6.65625 -1.68053,2.8496 -2.50002,5.62204 -2.5,8.34375 -2e-5,2.02761 0.67951,3.88198 2.03125,5.5625 1.35172,1.68054 3.36432,2.53125 6.03125,2.53125 3.92731,0 8.0458,-2.14485 12.375,-6.4375 l -0.59375,-0.8125 c -2.39295,1.84493 -4.1824,3.04576 -5.40625,3.59375 -1.20561,0.52973 -2.46607,0.8125 -3.78125,0.8125 -1.64402,0 -3.03671,-0.58622 -4.1875,-1.71875 -1.1508,-1.15078 -1.75,-2.53051 -1.75,-4.15625 0,-0.60278 0.0909,-1.36791 0.21875,-2.28125 3.7081,-0.42012 6.57912,-1.00107 8.625,-1.75 3.08703,-1.11425 5.41078,-2.56658 7,-4.375 1.20557,-1.38823 1.81248,-2.85886 1.8125,-4.375 -2e-5,-1.077714 -0.47468,-1.99577 -1.40625,-2.78125 C 337.34963,96.52707 335.93624,96.12502 334,96.125 z m 199.875,0 c -3.90906,0.10961 -7.16914,1.857716 -9.78125,5.21875 -2.61213,3.36107 -3.90625,7.14244 -3.90625,11.34375 0,2.75826 0.71318,4.91081 2.15625,6.5 1.46132,1.57093 3.50759,2.38795 6.15625,2.40625 l -3.3125,11.34375 2.8125,0 3.1875,-11.3125 c 5.02329,-0.18267 8.90326,-2.02934 11.625,-5.5 2.73996,-3.48891 4.09372,-7.42323 4.09375,-11.84375 -3e-5,-2.4477 -0.4694,-4.42664 -1.4375,-5.90625 -0.96816,-1.49783 -2.34018,-2.24998 -4.09375,-2.25 -1.24216,2e-5 -2.40402,0.41505 -3.5,1.21875 -1.09602,0.78549 -2.00107,1.947356 -2.75,3.5 -0.74893,1.53442 -1.59967,3.87114 -2.53125,7.03125 l -3.71875,12.25 c -2.95921,-0.12787 -4.4375,-2.27271 -4.4375,-6.4375 0,-3.45237 0.91035,-6.96396 2.71875,-10.5625 1.82665,-3.598494 3.9585,-5.59812 6.40625,-6 l 0.3125,-1 z m 87.9375,0 -9.46875,1.53125 0,1.0625 c 1.24971,-0.184511 2.52292,-0.565672 3.65625,0.09375 0.29226,0.25575 0.4375,0.59816 0.4375,1 0,0.5115 -0.29046,1.77195 -0.875,3.78125 l -3.5625,12.25 c -0.45667,1.57093 -0.6875,2.69914 -0.6875,3.375 0,0.67587 0.24382,1.26207 0.71875,1.71875 0.47493,0.4384 1.06356,0.65625 1.8125,0.65625 1.13253,0 2.32036,-0.50062 3.5625,-1.46875 1.68051,-1.29693 3.1641,-2.88151 4.40625,-4.78125 l -0.96875,-0.625 c -1.05948,1.51612 -2.11507,2.67801 -3.15625,3.5 -0.38361,0.29226 -0.69476,0.4375 -0.96875,0.4375 -0.23748,0 -0.47358,-0.0986 -0.65625,-0.28125 -0.16438,-0.18267 -0.21877,-0.42649 -0.21875,-0.71875 -2e-5,-0.25573 0.16591,-1.01556 0.53125,-2.3125 L 621.8125,96.125 z m 118.0625,0.03125 c -3.90963,0.10964 -7.16875,1.825997 -9.78125,5.1875 -2.61249,3.36155 -3.9375,7.14185 -3.9375,11.34375 0,2.75866 0.74424,4.94183 2.1875,6.53125 1.46154,1.57113 3.50721,2.3567 6.15625,2.375 l -3.3125,11.34375 2.78125,0 3.21875,-11.3125 c 5.02401,-0.18269 8.90288,-1.99762 11.625,-5.46875 2.74036,-3.48942 4.09372,-7.45385 4.09375,-11.875 -3e-5,-2.44806 -0.46926,-4.39518 -1.4375,-5.875 -0.9683,-1.498063 -2.33994,-2.24997 -4.09375,-2.25 -1.24232,3e-5 -2.40387,0.38367 -3.5,1.1875 -1.09616,0.785593 -2.03224,1.94713 -2.78125,3.5 -0.74906,1.53462 -1.56829,3.90195 -2.5,7.0625 l -3.71875,12.25 c -2.95961,-0.12788 -4.4375,-2.27214 -4.4375,-6.4375 0,-3.45287 0.91009,-6.99472 2.71875,-10.59375 1.8269,-3.59901 3.95818,-5.59806 6.40625,-6 l 0.3125,-0.96875 z m -355.1875,0.5625 0,2.25 29.5625,0 0,-2.25 -29.5625,0 z m 82.75,0.15625 c 2.00931,3e-5 3.6718,0.87142 4.96875,2.625 1.91798,2.55733 2.87497,6.07421 2.875,10.53125 -3e-5,3.56199 -0.59922,6.06993 -1.75,7.53125 -1.15081,1.46134 -2.60315,2.1875 -4.375,2.1875 -2.37465,0 -4.28868,-1.32009 -5.75,-3.96875 -1.44307,-2.64865 -2.15625,-5.81543 -2.15625,-9.46875 0,-2.26505 0.30344,-4.11942 0.90625,-5.5625 0.60279,-1.443044 1.37562,-2.43371 2.34375,-3 0.98639,-0.5845 1.96935,-0.87497 2.9375,-0.875 z m 204.4375,0.15625 c 0.18462,-0.01842 0.37289,0 0.5625,0 0.98688,2e-5 1.93908,0.2902 2.84375,0.875 0.90464,0.584853 1.57434,1.38282 2.03125,2.40625 0.2924,0.65795 0.50235,1.79799 0.59375,3.40625 l -11.625,0 c 0.20103,-2.1017 0.89667,-3.75869 2.09375,-4.9375 1.04743,-1.031423 2.20769,-1.62105 3.5,-1.75 z M 332.96875,97.5 c 0.89504,3e-5 1.58756,0.24384 2.0625,0.71875 0.49318,0.47495 0.74997,1.076576 0.75,1.84375 -3e-5,1.26042 -0.58624,2.59349 -1.71875,4 -1.11429,1.38828 -2.78448,2.58909 -5.03125,3.59375 -1.6988,0.74893 -3.89031,1.28322 -6.59375,1.59375 0.98637,-3.8725 2.51136,-6.77718 4.59375,-8.75 2.10065,-1.991034 4.07429,-2.99997 5.9375,-3 z m 207.75,1.28125 c 1.60744,2e-5 2.40622,1.58989 2.40625,4.75 -3e-5,3.70813 -0.97772,7.34427 -2.96875,10.90625 -1.99108,3.54372 -4.81544,5.4188 -8.46875,5.65625 L 535.125,108.5 c 1.22384,-4.14649 2.23279,-6.79968 3,-7.96875 0.76718,-1.169054 1.6256,-1.74998 2.59375,-1.75 z m 206,0.03125 c 1.60765,3e-5 2.40622,1.55821 2.40625,4.71875 -3e-5,3.70865 -0.97743,7.34377 -2.96875,10.90625 -1.99136,3.54423 -4.81494,5.45 -8.46875,5.6875 l 3.4375,-11.59375 c 1.22402,-4.14709 2.23267,-6.7995 3,-7.96875 0.76727,-1.16921 1.62545,-1.74997 2.59375,-1.75 z m -362.03125,6.84375 0,2.25 29.5625,0 0,-2.25 -29.5625,0 z"
     id="path22" />
  <path
     d="M 584.18277,461.30992 593.48374,456.77218 594.41383,456.77218 594.41383,489.04371 C 594.41381,491.18576 594.49837,492.51984 594.6675,493.04594 594.85538,493.57206 595.23117,493.97605 595.79489,494.2579 596.35857,494.53974 597.50474,494.69946 599.23343,494.73703 L 599.23343,495.77987 584.85921,495.77987 584.85921,494.73703 C 586.66302,494.69946 587.82799,494.54913 588.35411,494.28607 588.88021,494.00423 589.24661,493.63783 589.45333,493.18687 589.66,492.71713 589.76334,491.33608 589.76335,489.04371 L 589.76335,468.41248 C 589.76334,465.63162 589.66939,463.84659 589.48151,463.05739 589.34997,462.45614 589.1057,462.01457 588.74871,461.7327 588.41047,461.45088 587.9971,461.30997 587.50857,461.30992 586.81334,461.30997 585.84566,461.60121 584.60555,462.18365 L 584.18277,461.30992"
     id="path26" />
  <path
     d="M 282.43636,118.57754 C 283.25454,118.57757 283.94611,118.86004 284.51107,119.42495 285.07599,119.98993 285.35846,120.6815 285.35848,121.49966 285.35846,122.2984 285.06625,122.98997 284.48185,123.57436 283.91689,124.13934 283.23507,124.42181 282.43636,124.42178 281.63764,124.42181 280.94608,124.13934 280.36166,123.57436 279.7967,122.98997 279.51423,122.2984 279.51424,121.49966 279.51423,120.6815 279.7967,119.98993 280.36166,119.42495 280.92658,118.86004 281.61816,118.57757 282.43636,118.57754 M 282.81624,130.17836 277.03045,150.66243 C 276.64082,152.04557 276.44601,152.8735 276.44601,153.14623 276.44601,153.45793 276.53367,153.71118 276.709,153.90598 276.90381,154.1008 277.12783,154.1982 277.38109,154.1982 277.6733,154.1982 278.02396,154.04235 278.43306,153.73066 279.54346,152.85402 280.66361,151.60725 281.79349,149.99034 L 282.81624,150.66243 C 281.49153,152.68844 279.93307,154.39301 278.14084,155.77616 276.81615,156.80864 275.54988,157.32487 274.34209,157.32487 273.54337,157.32487 272.89076,157.09111 272.38426,156.62357 271.87775,156.13655 271.62451,155.53264 271.62451,154.81184 271.62451,154.09106 271.86802,152.89299 272.35505,151.21763 L 276.1538,138.12653 C 276.77717,135.98366 277.08888,134.63949 277.08888,134.094 277.08888,133.66545 276.93303,133.31479 276.62134,133.04204 276.32913,132.76933 275.92002,132.63297 275.39405,132.63294 274.96546,132.63297 274.07909,132.74011 272.73492,132.95437 L 272.73492,131.81475 282.81624,130.17836"
     id="path32" />
  <path
     d="M 404.91041,191.44671 404.91041,443.89274"
     style="fill:none;stroke:#000000;stroke-width:4"
     id="path36" />
  <path
     d="M 330.12919,374.11514 C 359.37143,385.4067 378.33884,412.1285 378.06807,441.65274"
     style="fill:none;stroke:#000000;stroke-width:4"
     id="path38" />
  <path
     d="M 404.62706,192.08522 397.917,236.96041 376.84391,227.79571 404.62706,192.08522 z"
     style="stroke-width:1.5px"
     id="path40" />
  <path
     d="M 448.46875 309.5 C 445.14253 309.50003 442.38973 310.72175 440.1875 313.125 C 437.98526 315.5283 436.875 318.86144 436.875 323.15625 C 436.875 327.12212 437.94633 330.27656 440.09375 332.625 C 442.24116 334.97345 444.82822 336.15625 447.84375 336.15625 C 450.62167 336.15625 452.93537 335.11853 454.78125 333.0625 C 456.62709 331.00647 457.74118 328.72255 458.125 326.21875 L 457.28125 325.6875 C 456.45881 327.88061 455.43407 329.4391 454.21875 330.34375 C 453.00339 331.24841 451.58231 331.6875 449.9375 331.6875 C 447.47025 331.6875 445.32758 330.62 443.5 328.5 C 441.67241 326.38001 440.76297 323.47829 440.78125 319.75 L 458.125 319.75 C 458.12498 316.64312 457.21554 314.13627 455.40625 312.28125 C 453.59692 310.42627 451.28322 309.50003 448.46875 309.5 z M 423.34375 309.53125 C 421.09581 309.53128 419.26012 310.23606 417.84375 311.625 C 416.42737 313.01399 415.71875 314.74735 415.71875 316.8125 C 415.71875 318.40252 416.11508 319.70829 416.9375 320.75 C 417.75991 321.81001 419.50624 322.99665 422.15625 324.3125 C 424.80624 325.62837 426.58236 326.70354 427.46875 327.5625 C 428.35511 328.42147 428.78123 329.48897 428.78125 330.75 C 428.78123 331.79173 428.38873 332.69733 427.59375 333.4375 C 426.79874 334.17767 425.76102 334.53125 424.5 334.53125 C 422.70896 334.53125 421.10003 333.89134 419.65625 332.59375 C 418.21245 331.29617 417.23047 329.37113 416.71875 326.8125 L 415.8125 326.8125 L 415.8125 335.78125 L 416.71875 335.78125 C 416.95633 335.30608 417.2984 335.0625 417.71875 335.0625 C 418.10254 335.0625 418.58439 335.16099 419.1875 335.34375 C 421.16128 335.89203 422.93357 336.15625 424.46875 336.15625 C 426.60701 336.15625 428.52292 335.4606 430.25 334.0625 C 431.97705 332.6644 432.84373 330.81574 432.84375 328.53125 C 432.84373 325.57057 430.99123 323.18432 427.28125 321.375 L 423.28125 319.4375 C 421.54503 318.59683 420.37904 317.81183 419.8125 317.0625 C 419.22767 316.33148 418.93749 315.42972 418.9375 314.40625 C 418.93749 313.58386 419.33913 312.83248 420.125 312.15625 C 420.91085 311.48007 421.93943 311.15627 423.21875 311.15625 C 424.90012 311.15627 426.28757 311.62515 427.375 312.59375 C 428.4624 313.56239 429.368 315.40722 430.0625 318.09375 L 430.96875 318.09375 L 430.96875 309.53125 L 430.0625 309.53125 C 429.84317 309.9699 429.63322 310.24709 429.46875 310.375 C 429.30425 310.50296 429.07365 310.59377 428.78125 310.59375 C 428.47054 310.59377 427.86955 310.43041 426.9375 310.15625 C 425.53025 309.73593 424.33064 309.53128 423.34375 309.53125 z M 467.59375 309.53125 L 460.03125 312.59375 L 460.4375 313.59375 C 461.15026 313.31963 461.73827 313.18752 462.25 313.1875 C 462.72517 313.18752 463.12297 313.29369 463.40625 313.53125 C 463.68952 313.76886 463.89418 314.21709 464.03125 314.875 C 464.16831 315.53295 464.25 317.39075 464.25 320.40625 L 464.25 329.71875 C 464.25 331.54634 464.01025 332.78871 463.5625 333.4375 C 463.11474 334.08629 462.24806 334.40625 460.96875 334.40625 L 460.4375 334.40625 L 460.4375 335.375 L 472.84375 335.375 L 472.84375 334.40625 C 471.47305 334.40625 470.57275 334.27798 470.125 334.03125 C 469.67723 333.78453 469.31835 333.405 469.0625 332.875 C 468.86146 332.47293 468.74999 331.41841 468.75 329.71875 L 468.75 316.46875 C 470.90654 314.09291 473.07516 312.90627 475.25 312.90625 C 476.65722 312.90627 477.65602 313.43619 478.25 314.46875 C 478.84395 315.50136 479.15623 317.15304 479.15625 319.4375 L 479.15625 329.71875 C 479.15623 331.16255 479.10433 332.00712 479.03125 332.28125 C 478.84847 332.97574 478.52852 333.51862 478.0625 333.875 C 477.59645 334.23138 476.79464 334.40625 475.625 334.40625 L 475.09375 334.40625 L 475.09375 335.375 L 487.5 335.375 L 487.5 334.40625 C 486.29377 334.40625 485.47898 334.28711 485.03125 334.03125 C 484.58347 333.77539 484.26351 333.3944 484.0625 332.9375 C 483.80661 332.37095 483.68748 331.30875 483.6875 329.71875 L 483.6875 319 C 483.68748 316.73381 483.46455 315.03407 483.0625 313.9375 C 482.47765 312.3658 481.70562 311.24787 480.71875 310.5625 C 479.73183 309.87718 478.55817 309.53128 477.1875 309.53125 C 474.51921 309.53128 471.6924 311.29826 468.75 314.84375 L 468.75 309.53125 L 467.59375 309.53125 z M 514.375 310.59375 C 510.46537 310.70339 507.20625 312.41975 504.59375 315.78125 C 501.98126 319.1428 500.65625 322.9231 500.65625 327.125 C 500.65625 329.88366 501.40049 332.06683 502.84375 333.65625 C 504.30529 335.22738 506.35096 336.01295 509 336.03125 L 505.6875 347.375 L 508.46875 347.375 L 511.6875 336.0625 C 516.71151 335.87981 520.59038 334.06488 523.3125 330.59375 C 526.05286 327.10433 527.40622 323.1399 527.40625 318.71875 C 527.40622 316.27069 526.93699 314.32357 525.96875 312.84375 C 525.00045 311.34569 523.62881 310.59378 521.875 310.59375 C 520.63268 310.59378 519.47113 310.97742 518.375 311.78125 C 517.27884 312.56684 516.34276 313.72838 515.59375 315.28125 C 514.84469 316.81587 514.02546 319.1832 513.09375 322.34375 L 509.375 334.59375 C 506.41539 334.46587 504.9375 332.32161 504.9375 328.15625 C 504.9375 324.70338 505.84759 321.16153 507.65625 317.5625 C 509.48315 313.96349 511.61443 311.96444 514.0625 311.5625 L 514.375 310.59375 z M 446.375 311.46875 C 446.55962 311.45033 446.74789 311.46875 446.9375 311.46875 C 447.92438 311.46877 448.87658 311.75895 449.78125 312.34375 C 450.68589 312.9286 451.35559 313.72657 451.8125 314.75 C 452.1049 315.40795 452.31485 316.54799 452.40625 318.15625 L 440.78125 318.15625 C 440.98228 316.05455 441.67792 314.39756 442.875 313.21875 C 443.92243 312.18733 445.08269 311.5977 446.375 311.46875 z M 521.21875 313.25 C 522.8264 313.25003 523.62497 314.80821 523.625 317.96875 C 523.62497 321.6774 522.64757 325.31252 520.65625 328.875 C 518.66489 332.41923 515.84131 334.325 512.1875 334.5625 L 515.625 322.96875 C 516.84902 318.82166 517.85767 316.16925 518.625 315 C 519.39227 313.83079 520.25045 313.25003 521.21875 313.25 z "
     id="path2864" />
  <g
     style="font-size:24px;font-style:normal;font-weight:normal;line-height:125%;letter-spacing:0px;word-spacing:0px;fill:#000000;fill-opacity:1;stroke:none;font-family:Balkeno;-inkscape-font-specification:Balkeno"
     id="text2928">
    <path
       d="m 735.79535,503.84283 c -0.38384,1e-5 -0.62407,0.21608 -0.7207,0.6482 l -0.21534,0.7185 c -0.0967,0.57716 -0.4329,0.86573 -1.00854,0.86573 -0.24028,0 -0.5164,-0.0842 -0.82837,-0.25269 -0.31206,-0.16845 -0.73173,-0.49291 -1.25903,-0.97339 -1.34477,-1.1997 -2.30498,-2.135 -2.88062,-2.80591 l -3.74414,-4.60986 c -1.00785,-1.24803 -2.18375,-2.48399 -3.52771,-3.70789 -1.34403,-1.22385 -2.44815,-2.09946 -3.31238,-2.62683 -0.47903,-0.28855 -0.71853,-0.55295 -0.7185,-0.79321 -3e-5,-0.23875 0.38376,-0.43064 1.15136,-0.57568 2.63962,-0.47898 5.08737,-1.29454 7.34327,-2.44666 2.25582,-1.15207 4.21175,-2.53232 5.86779,-4.14074 1.65596,-1.60837 2.95198,-3.3845 3.88807,-5.32837 0.93598,-1.94382 1.404,-3.94772 1.40405,-6.01172 -5e-5,-3.0234 -1.03203,-5.43526 -3.09595,-7.2356 -2.06401,-1.80024 -4.7996,-2.70039 -8.20679,-2.70044 -1.24808,5e-5 -2.71219,0.14397 -4.39233,0.43176 -1.68021,0.28789 -3.19193,0.69622 -4.53516,1.22498 -2.16067,0.76762 -4.381,1.90727 -6.66101,3.41895 -2.28005,1.51176 -4.52382,3.32377 -6.73132,5.43603 -2.30421,2.2559 -4.39235,4.60807 -6.2644,7.05652 -1.87208,2.44851 -3.45631,4.93252 -4.75269,7.45203 -1.29639,2.51955 -2.30457,5.00355 -3.02454,7.45202 -0.71997,2.4485 -1.07995,4.75233 -1.07995,6.9115 0,3.16846 0.68408,5.7367 2.05224,7.70471 1.36816,1.96802 3.18017,2.95203 5.43604,2.95203 1.58495,0 3.25341,-0.43213 5.00537,-1.29639 1.75194,-0.86425 3.44383,-2.06396 5.07568,-3.59912 1.34325,-1.29638 2.49498,-2.7008 3.4552,-4.21326 0.96019,-1.51244 1.89659,-3.34825 2.80921,-5.50744 0.28708,-0.81591 0.6467,-1.22386 1.07886,-1.22388 0.2402,2e-5 0.60019,0.14394 1.07995,0.43176 0.47971,0.28786 0.95981,0.62368 1.44031,1.00745 0.38376,0.33693 0.75583,0.67311 1.11621,1.00855 0.36032,0.33546 0.76828,0.75513 1.22388,1.25903 0.45553,0.50392 0.98324,1.11585 1.58313,1.83581 0.59982,0.71998 1.33187,1.63221 2.19616,2.7367 1.39303,1.72852 2.5455,3.04871 3.4574,3.96057 0.91183,0.91187 1.87167,1.72742 2.87952,2.44665 1.248,0.9126 2.30415,1.3689 3.16845,1.3689 0.5273,0 0.98287,-0.17981 1.3667,-0.53943 0.38375,-0.35962 0.91182,-1.0675 1.58423,-2.12365 0.72066,-1.10449 1.28499,-2.04089 1.693,-2.80921 0.40791,-0.7683 0.61189,-1.29601 0.61193,-1.58313 -4e-5,-0.0967 -0.0242,-0.20507 -0.0725,-0.32519 -0.0484,-0.12011 -0.19267,-0.29956 -0.43286,-0.53833 -0.19194,-0.24023 -0.35966,-0.36035 -0.50317,-0.36036 z M 720.2431,466.33112 c -0.14358,4e-5 -0.31131,0.0476 -0.50317,0.14282 l -5.90405,2.73559 c -0.4805,0.24028 -0.81668,0.43254 -1.00855,0.57679 -0.19192,0.14432 -0.35964,0.38419 -0.50317,0.7196 -0.2886,0.62406 -0.57681,1.50004 -0.86463,2.62793 -0.28786,1.12797 -0.60024,2.53202 -0.93713,4.21216 -0.33547,1.58353 -0.58706,2.81949 -0.75476,3.70788 -0.16775,0.88846 -0.29995,1.45279 -0.39661,1.693 l -0.79101,3.16845 c -0.24026,0.91116 -0.39626,1.47476 -0.46802,1.6908 -0.0718,0.21609 -0.15603,0.37246 -0.25269,0.46912 -2e-5,2e-5 -0.16774,0.0476 -0.50317,0.14282 -0.62404,0.14358 -1.08034,0.33547 -1.3689,0.57568 -0.24025,0.24026 -0.50429,0.54055 -0.79211,0.90088 -0.28786,0.36037 -0.81557,1.11623 -1.58313,2.26758 -0.0967,0.14357 -0.2289,0.33547 -0.39661,0.57568 -0.16774,0.24026 -0.37172,0.5281 -0.61194,0.86353 -0.1919,0.28859 -0.28785,0.50465 -0.28784,0.64819 -10e-6,0.28859 0.16771,0.43288 0.50318,0.43286 0.0967,2e-5 0.28856,-0.0483 0.57568,-0.14502 0.0483,2e-5 0.15636,-0.0117 0.3241,-0.0352 0.16771,-0.0234 0.39585,-0.0593 0.68445,-0.10767 0.24021,-0.0483 0.44419,-0.0846 0.61193,-0.10876 0.16771,-0.0242 0.32408,-0.0362 0.46912,-0.0363 l 0.0703,0 c 0.28856,2e-5 0.54088,0.0842 0.75696,0.25269 0.21605,0.16847 0.32408,0.37282 0.3241,0.61303 -2e-5,0.0952 -0.0242,0.2267 -0.0725,0.39441 -0.0484,0.16774 -0.096,0.34755 -0.14283,0.53943 -0.14503,0.28859 -0.3611,0.86501 -0.64819,1.72925 -1.43996,4.36817 -2.91615,7.54835 -4.42859,9.54053 -1.51246,1.99219 -3.22816,2.98828 -5.14709,2.98828 -1.24806,0 -2.22034,-0.50427 -2.91687,-1.51282 -0.69654,-1.00854 -1.04481,-2.42468 -1.0448,-4.24841 -10e-6,-1.05615 0.12011,-2.24413 0.36035,-3.56397 0.24023,-1.31981 0.57641,-2.74803 1.00854,-4.28466 0.76758,-2.5913 1.64355,-4.97899 2.62793,-7.16309 0.98437,-2.18406 2.24413,-4.54831 3.7793,-7.09277 3.69579,-5.99997 7.46373,-10.51168 11.30383,-13.53516 3.84006,-3.02339 7.68052,-4.53511 11.52137,-4.53516 2.35103,5e-5 4.28279,0.74382 5.79528,2.23133 1.51241,1.48759 2.26864,3.40763 2.26868,5.76013 -4e-5,2.83158 -0.8643,5.61551 -2.59277,8.35181 -0.76762,1.24807 -1.58354,2.28005 -2.44776,3.09594 -0.86429,0.81595 -1.96805,1.58426 -3.31128,2.30493 -1.2012,0.67093 -2.38955,1.21036 -3.56506,1.61829 -1.17557,0.40798 -2.09952,0.61196 -2.77185,0.61194 -0.71927,2e-5 -1.07888,-0.23948 -1.07886,-0.71851 l 0,-0.0725 c 0.0469,-0.24021 0.0824,-0.46836 0.10657,-0.68445 0.0241,-0.21604 0.0846,-0.46762 0.18127,-0.75476 0.14353,-0.48044 0.43137,-1.58493 0.86353,-3.31347 l 1.07886,-4.39234 c 0.33688,-1.29488 0.60129,-2.37447 0.79321,-3.23877 0.19186,-0.86422 0.33542,-1.48824 0.43066,-1.87207 0.28855,-1.15279 0.6489,-2.30489 1.08106,-3.45629 0.2402,-0.72067 0.48044,-1.32052 0.7207,-1.79957 0.19186,-0.38374 0.28781,-0.71992 0.28784,-1.00854 -3e-5,-0.33541 -0.14432,-0.50313 -0.43286,-0.50317 z"
       style="font-size:72px;font-variant:normal;font-stretch:normal;font-family:Forelle;-inkscape-font-specification:Forelle"
       id="path2937" />
  </g>
  <g
     style="font-size:24px;font-style:normal;font-weight:normal;line-height:125%;letter-spacing:0px;word-spacing:0px;fill:#000000;fill-opacity:1;stroke:none;font-family:Balkeno;-inkscape-font-specification:Balkeno"
     id="text2932">
    <path
       d="m 263.7937,52.690659 c 0.0468,-0.288547 0.0703,-0.504612 0.0703,-0.648194 -3e-5,-0.143527 -3e-5,-0.239474 0,-0.287842 l 1.51392,-11.304931 c 0.23873,-1.82369 0.46615,-3.311603 0.68225,-4.463745 0.21603,-1.152055 0.44418,-2.111893 0.68445,-2.879517 l 0.21753,-0.720703 c 0.0468,-0.09517 0.0703,-0.215285 0.0703,-0.360352 -4e-5,-0.287061 -0.19193,-0.454786 -0.57568,-0.503173 l -0.57569,0 c -0.0967,-0.04829 -0.21683,-0.07246 -0.36035,-0.07251 -2.78323,4.8e-5 -5.43496,0.516039 -7.9552,1.547973 -2.52029,1.032028 -4.74026,2.423995 -6.65991,4.175904 -1.9197,1.751994 -3.45558,3.780068 -4.60767,6.084228 -1.15211,2.304234 -1.72816,4.704378 -1.72815,7.20044 -1e-5,1.439969 0.22777,2.939967 0.68335,4.5 0.45555,1.560081 1.07958,3.072165 1.87207,4.536255 0.79247,1.46413 1.7285,2.820207 2.80811,4.068237 1.07957,1.248062 2.26756,2.304213 3.56396,3.168457 0.48045,0.287122 0.72068,0.599133 0.72071,0.936035 -3e-5,0.479015 -0.24026,1.246593 -0.72071,2.302734 -0.14357,0.335459 -0.28749,0.659189 -0.43176,0.971192 -0.14431,0.31202 -0.3124,0.636483 -0.50427,0.973389 -1.19973,2.06397 -2.15993,3.407963 -2.88062,4.031982 -0.81593,0.815921 -1.99184,1.500002 -3.52771,2.052246 -1.5359,0.552247 -3.04798,0.82837 -4.53625,0.828369 -2.15919,10e-7 -3.89906,-0.54016 -5.21961,-1.620483 -1.32056,-1.080319 -1.98083,-2.460567 -1.98083,-4.140747 0,-1.007805 0.26403,-1.979728 0.79211,-2.915772 0.52807,-0.936025 1.22424,-1.751942 2.0885,-2.447754 0.86425,-0.695788 1.87243,-1.247667 3.02454,-1.655639 1.15209,-0.407945 2.37633,-0.611925 3.67273,-0.611939 0.52733,1.4e-5 0.9829,0.02382 1.3667,0.07141 0.38377,0.04762 0.88768,0.167373 1.51172,0.359253 0.28856,0.09669 0.45701,0.145033 0.50537,0.14502 0.33543,1.3e-5 0.50316,-0.168443 0.50317,-0.505371 -1e-5,-0.43065 -0.79176,-0.838608 -2.37524,-1.223877 -0.91261,-0.191879 -1.80104,-0.287826 -2.66528,-0.287842 -1.72707,1.6e-5 -3.34682,0.228165 -4.85926,0.684448 -1.51245,0.456313 -2.84473,1.068618 -3.99682,1.836914 -1.15211,0.768323 -2.05188,1.680187 -2.69934,2.735596 -0.64747,1.055429 -0.9712,2.183724 -0.9712,3.384888 0,2.351078 0.97193,4.210696 2.91578,5.578857 1.94384,1.368164 4.57177,2.052246 7.88379,2.052246 1.72703,0 3.29881,-0.180176 4.71533,-0.540527 1.41648,-0.360351 2.89231,-0.971923 4.42749,-1.834717 0.67234,-0.385252 1.32053,-0.781858 1.94458,-1.189819 0.624,-0.407956 1.20041,-0.851437 1.72925,-1.330445 0.76755,-0.672358 1.82297,-1.800287 3.16626,-3.383789 0.62399,-0.624015 1.08029,-1.152091 1.36889,-1.584228 0.48044,-0.624014 0.8884,-0.936025 1.22388,-0.936035 0.14352,1e-5 0.4072,0.07179 0.79101,0.215332 0.19187,0.04835 0.49216,0.120493 0.90088,0.21643 0.40866,0.09596 0.87668,0.168101 1.40406,0.216431 0.19186,0.04688 0.45553,0.07032 0.79101,0.07031 0.86423,1e-5 1.41647,-0.263662 1.65674,-0.791015 l 0.36035,-0.720703 c 0.14352,-0.191884 0.2153,-0.359608 0.21533,-0.503174 -3e-5,-0.288563 -0.14359,-0.43285 -0.43066,-0.432861 -0.0967,1.1e-5 -0.38529,0.09596 -0.86572,0.287841 -0.28715,0.09669 -0.5629,0.168835 -0.82727,0.216431 -0.26444,0.04762 -0.68448,0.07142 -1.26014,0.07141 -0.86428,1.1e-5 -1.45242,-0.04796 -1.7644,-0.143921 -0.31204,-0.09593 -0.46805,-0.311633 -0.46802,-0.647094 -3e-5,-0.09667 0.0959,-0.336902 0.28784,-0.720704 0.0967,-0.240221 0.24094,-0.672349 0.43287,-1.296386 0.19186,-0.624009 0.38375,-1.223862 0.57568,-1.799561 0.19186,-0.527327 0.37204,-1.187239 0.54053,-1.979736 0.16842,-0.792462 0.37203,-1.692608 0.61084,-2.70044 0.28854,-1.391579 0.52877,-2.60337 0.7207,-3.635376 0.19186,-1.031957 0.33615,-1.931736 0.43286,-2.69934 z m -4.75268,-12.671631 -0.72071,4.822998 -0.57568,5.040527 c -0.0952,0.575713 -0.19082,1.259428 -0.28674,2.051148 -0.096,0.791775 -0.21646,1.668116 -0.36145,2.629028 -0.19193,1.248071 -0.35965,2.363914 -0.50318,3.347534 -0.14358,0.983663 -0.28787,1.835835 -0.43286,2.556519 l -0.64819,3.383789 c -0.19192,1.007827 -0.52737,1.511733 -1.00635,1.511718 -0.52883,1.5e-5 -1.26125,-0.551865 -2.19727,-1.655639 -0.93605,-1.103743 -1.76369,-2.375592 -2.48291,-3.815552 -0.52882,-0.960917 -0.93715,-2.125466 -1.22497,-3.493652 -0.28786,-1.36814 -0.43178,-2.748021 -0.43176,-4.139649 -2e-5,-2.783173 0.57603,-5.566739 1.72814,-8.350708 1.15208,-2.783897 2.68834,-5.111897 4.60877,-6.984009 0.57566,-0.528765 1.1876,-1.020952 1.83581,-1.476562 0.64817,-0.455522 1.40366,-0.803422 2.26648,-1.043701 0.19333,-0.144974 0.43357,-0.217484 0.72071,-0.21753 0.38376,4.6e-5 0.57565,0.24028 0.57568,0.720704 -3e-5,0.09672 -0.0238,0.288984 -0.0714,0.576782 -0.0476,0.287885 -0.11978,0.575361 -0.21643,0.862427 -0.0484,0.288617 -0.12051,0.73283 -0.21643,1.332641 -0.096,0.599895 -0.21573,1.38029 -0.35925,2.341187 z"
       style="font-size:72px;font-variant:normal;font-stretch:normal;font-family:Forelle;-inkscape-font-specification:Forelle"
       id="path2940" />
  </g>
</svg>
